<?xml version="1.0" encoding="iso-8859-1"?>
<!-- Generator: Adobe Illustrator 19.0.0, SVG Export Plug-In . SVG Version: 6.00 Build 0)  -->
<svg version="1.1" id="Layer_1" xmlns="http://www.w3.org/2000/svg" xmlns:xlink="http://www.w3.org/1999/xlink" x="0px" y="0px"
	 viewBox="0 0 512.001 512.001" style="enable-background:new 0 0 512.001 512.001;" xml:space="preserve">
<path style="fill:#DBE1E5;" d="M389.566,0h-267.13c-9.239,0-16.696,7.457-16.696,16.696v83.478h300.522V16.696
	C406.261,7.457,398.805,0,389.566,0z"/>
<path style="fill:#C9D3D9;" d="M389.566,0H256.001v100.174h150.261V16.696C406.261,7.457,398.805,0,389.566,0z"/>
<path style="fill:#61DAF2;" d="M439.207,491.297l-1.002-4.007c-20.369-81.141-31.944-179.645-31.944-270.247V66.783H105.74v150.261
	c0,90.602-11.576,189.106-31.944,270.247l-1.002,4.007c-1.225,4.896-0.111,10.24,3.117,14.247c3.117,4.118,8.014,6.456,13.134,6.456
	h333.913c5.12,0,10.017-2.337,13.133-6.456C439.319,501.537,440.433,496.195,439.207,491.297z M272.474,241.419
	c0.111,0.111,0.111,0.223,0,0.223c-1.336,57.322-7.012,116.87-16.473,172.412c-9.461-55.542-15.137-115.089-16.473-172.412
	c-0.111,0-0.111-0.11,0-0.223c-0.111-8.125-0.223-16.25-0.223-24.376c0-9.238,7.456-16.696,16.696-16.696
	c9.239,0,16.696,7.457,16.696,16.696C272.696,225.169,272.585,233.294,272.474,241.419z"/>
<path style="fill:#45C7E6;" d="M438.206,487.29c-20.369-81.141-31.944-179.645-31.944-270.247V66.783H256.001v133.565
	c9.239,0,16.696,7.457,16.696,16.696c0,8.125-0.111,16.25-0.223,24.376c0.111,0.111,0.111,0.223,0,0.223
	c-1.336,57.322-7.012,116.87-16.473,172.412v97.948h166.957c5.12,0,10.017-2.337,13.133-6.456c3.228-4.007,4.342-9.35,3.116-14.247
	L438.206,487.29z"/>
<path style="fill:#2B9FD9;" d="M306.861,66.783c-0.459,3.655-0.774,7.353-0.774,11.13c0,49.097,39.946,89.043,89.043,89.043
	c3.778,0,7.475-0.315,11.13-0.774v-99.4H306.861z"/>
<path style="fill:#3AACE6;" d="M105.74,66.783v99.4c3.655,0.459,7.353,0.774,11.13,0.774c49.097,0,89.043-39.946,89.043-89.043
	c0-3.778-0.315-7.475-0.774-11.13H105.74z"/>
<g>
</g>
<g>
</g>
<g>
</g>
<g>
</g>
<g>
</g>
<g>
</g>
<g>
</g>
<g>
</g>
<g>
</g>
<g>
</g>
<g>
</g>
<g>
</g>
<g>
</g>
<g>
</g>
<g>
</g>
</svg>
