<svg version="1.2" xmlns="http://www.w3.org/2000/svg" viewBox="0 0 27 38" width="27" height="38">
	<title>jeans-svg</title>
	<style>
		.s0 { fill: #dbe1e5 } 
		.s1 { fill: #c9d3d9 } 
		.s2 { fill: #61daf2 } 
		.s3 { fill: #45c7e6 } 
		.s4 { fill: #2b9fd9 } 
		.s5 { fill: #3aace6 } 
	</style>
	<path id="Layer" class="s0" d="m21.4 1.2v6.2h-15.8v-6.2c0-0.6 0.4-1.2 0.8-1.2h14.1c0.5 0 0.9 0.6 0.9 1.2z" />
	<path id="Layer" class="s1" d="m21.4 1.2v6.2h-7.9v-7.4h7c0.5 0 0.9 0.6 0.9 1.2z" />
	<path id="Layer" fill-rule="evenodd" class="s2" d="m23 37.4c-0.2 0.4-0.5 0.5-0.7 0.5h-17.6c-0.3 0-0.5-0.1-0.7-0.5c-0.2-0.2-0.2-0.6-0.2-1l0.1-0.3c1.1-6 1.7-13.3 1.7-20v-11.2h15.8v11.2c0 6.7 0.6 14 1.7 20v0.3c0.1 0.4 0 0.8-0.1 1zm-8.6-21.3c0-0.7-0.4-1.3-0.9-1.3c-0.5 0-0.9 0.6-0.9 1.3q0 0.9 0 1.8q0 0 0 0c0.1 4.2 0.4 8.7 0.9 12.8c0.5-4.1 0.8-8.6 0.8-12.8q0 0 0 0q0.1-0.9 0.1-1.8z" />
	<path id="Layer" class="s3" d="m23.1 36.4c0.1 0.4 0 0.8-0.1 1c-0.2 0.4-0.5 0.5-0.7 0.5h-8.8v-7.2c0.5-4.1 0.8-8.6 0.8-12.8q0 0 0 0q0.1-0.9 0.1-1.8c0-0.7-0.4-1.3-0.9-1.3v-9.9h7.9v11.2c0 6.7 0.6 14 1.7 20z" />
	<path id="Layer" class="s4" d="m21.4 4.9v7.4q-0.3 0.1-0.6 0.1c-2.6 0-4.7-3-4.7-6.6q0-0.4 0.1-0.9c0 0 5.2 0 5.2 0z" />
	<path id="Layer" class="s5" d="m10.8 4.9q0 0.5 0 0.9c0 3.6-2.1 6.6-4.6 6.6q-0.3 0-0.6-0.1v-7.4c0 0 5.2 0 5.2 0z" />
	<g id="Layer">
	</g>
	<g id="Layer">
	</g>
	<g id="Layer">
	</g>
	<g id="Layer">
	</g>
	<g id="Layer">
	</g>
	<g id="Layer">
	</g>
	<g id="Layer">
	</g>
	<g id="Layer">
	</g>
	<g id="Layer">
	</g>
	<g id="Layer">
	</g>
	<g id="Layer">
	</g>
	<g id="Layer">
	</g>
	<g id="Layer">
	</g>
	<g id="Layer">
	</g>
	<g id="Layer">
	</g>
</svg>